<svg xmlns="http://www.w3.org/2000/svg" width="512" height="512" viewBox="0 0 512 512">
  <defs>
    <style>
      .cls-1 {
        fill-rule: evenodd;
      }
    </style>
  </defs>
  <path id="Ellipse_1_copy_5" data-name="Ellipse 1 copy 5" class="cls-1" d="M479.41,384.9A260.392,260.392,0,0,1,463.842,408.7L339.78,192.923h166.3A256.523,256.523,0,0,1,479.41,384.9ZM325.323,8.524A256.989,256.989,0,0,1,478.649,127.651,260.48,260.48,0,0,1,491.5,153.023l-247.776-.557ZM81.948,66.145A257.059,257.059,0,0,1,255.551-1,260.881,260.881,0,0,1,283.974.565L162.722,209.275ZM5.688,320.292a256.5,256.5,0,0,1,26.893-191.04,260.174,260.174,0,0,1,15.568-23.806L171.674,320.292H5.688ZM183.653,503.239a256.912,256.912,0,0,1-149.165-117.9A260.2,260.2,0,0,1,21.633,359.97l245.284,0.552ZM433.768,443.4a257.1,257.1,0,0,1-177.331,70.611,261.041,261.041,0,0,1-28.423-1.564L351.893,299.21Z"/>
</svg>
